<?xml version="1.0" encoding="utf-8"?>
<!-- Generator: Adobe Illustrator 16.0.0, SVG Export Plug-In . SVG Version: 6.00 Build 0)  -->
<!DOCTYPE svg PUBLIC "-//W3C//DTD SVG 1.1//EN" "http://www.w3.org/Graphics/SVG/1.1/DTD/svg11.dtd">
<svg version="1.1" id="Layer_1" xmlns="http://www.w3.org/2000/svg" xmlns:xlink="http://www.w3.org/1999/xlink" x="0px" y="0px"
	 width="612px" height="792px" viewBox="0 0 612 792" enable-background="new 0 0 612 792" xml:space="preserve">
<g id="_x37_28-clock_x40_2x.png_1_">
	<g>
		<path fill="#99CCFF" d="M306.067,166.449c-6.1,0-10.979,4.88-10.979,10.979v207.66h-131.21c-6.1,0-10.979,4.88-10.979,10.979
			s4.879,10.979,10.979,10.979h142.054c6.1,0,10.98-4.88,10.98-10.979V177.429C316.912,171.464,312.032,166.449,306.067,166.449z
			 M306.067,90C137.039,90,0,227.039,0,396.067s137.039,306.067,306.067,306.067s306.067-137.039,306.067-306.067
			C612,227.039,474.961,90,306.067,90z M306.067,680.177c-156.964,0-284.108-127.278-284.108-284.108
			c-0.136-156.964,127.144-284.244,284.108-284.244c156.965,0,284.108,127.28,284.108,284.244
			C590.177,552.896,462.897,680.177,306.067,680.177z"/>
	</g>
</g>
</svg>
